<svg width="255" height="56" fill="none" xmlns="http://www.w3.org/2000/svg"><g fill="#000"><path d="M16.877 56c-3.2 0-6.074-.679-8.62-2.036-2.546-1.358-4.559-3.334-6.038-5.928C.739 45.418 0 42.254 0 38.546c0-3.225.655-6.158 1.964-8.8 1.334-2.643 3.274-4.74 5.82-6.291 2.57-1.576 5.71-2.364 9.42-2.364 2.571 0 4.802.436 6.694 1.309 1.89.873 3.346 2.06 4.364 3.564 1.019 1.478 1.528 3.127 1.528 4.945 0 1.43-.436 2.558-1.31 3.382-.848.8-1.89 1.2-3.128 1.2-.679 0-1.382-.158-2.11-.473a4.418 4.418 0 0 1-1.818-1.454c-.485-.68-.727-1.54-.727-2.582 0-1.406.46-2.485 1.382-3.236.945-.752 2.037-1.128 3.273-1.128 1.164 0 2.183.364 3.056 1.091.873.727 1.31 1.794 1.31 3.2h-.146c0-1.503-.34-2.836-1.019-4a9.1 9.1 0 0 0-2.619-2.982 11.284 11.284 0 0 0-3.6-1.854 13.254 13.254 0 0 0-4.002-.619c-2.037 0-3.686.558-4.947 1.673-1.26 1.115-2.218 2.558-2.873 4.328a24.243 24.243 0 0 0-1.346 5.563 50.189 50.189 0 0 0-.327 5.527c0 2.085.121 4.134.364 6.146.266 2.012.715 3.83 1.345 5.454.655 1.625 1.576 2.922 2.765 3.891 1.188.97 2.728 1.455 4.62 1.455 2.133 0 3.988-.449 5.564-1.346 1.6-.897 2.934-2.145 4.001-3.745 1.092-1.6 1.965-3.43 2.62-5.49h.218c-.946 3.175-2.474 5.817-4.583 7.926-2.11 2.11-5.069 3.164-8.876 3.164ZM54.43 56c-3.248 0-6.17-.69-8.765-2.073-2.595-1.382-4.656-3.37-6.184-5.963-1.503-2.618-2.255-5.758-2.255-9.419 0-3.66.74-6.787 2.219-9.381 1.48-2.619 3.492-4.619 6.038-6 2.57-1.382 5.468-2.073 8.693-2.073 3.613 0 6.535.727 8.766 2.182 2.255 1.43 3.904 3.309 4.947 5.636 1.043 2.327 1.564 4.812 1.564 7.455H42.1v-.255H60.87a46.51 46.51 0 0 0-.182-4.727 23.713 23.713 0 0 0-.91-4.837c-.46-1.527-1.139-2.775-2.036-3.745-.873-.994-2.061-1.49-3.565-1.49-1.625 0-2.982.496-4.074 1.49-1.067.97-1.915 2.279-2.546 3.927-.606 1.649-1.042 3.48-1.31 5.491a50.415 50.415 0 0 0-.363 6.11c0 2.157.133 4.266.4 6.326.267 2.061.74 3.916 1.419 5.564.679 1.649 1.624 2.97 2.837 3.964 1.237.97 2.8 1.454 4.692 1.454 3.686 0 6.73-1.042 9.13-3.127 2.4-2.085 4.05-4.618 4.947-7.6h.254c-.945 3.152-2.667 5.794-5.165 7.927C61.9 54.946 58.577 56 54.431 56ZM86.39 39.127c0-2.327.146-4.557.437-6.69.29-2.158.788-4.085 1.491-5.782.703-1.722 1.685-3.08 2.946-4.073 1.261-.994 2.862-1.491 4.802-1.491 1.43 0 2.655.303 3.673.909 1.043.606 1.843 1.394 2.401 2.364.558.97.837 2.012.837 3.127 0 1.358-.425 2.521-1.274 3.49-.824.946-1.976 1.419-3.455 1.419-1.504 0-2.692-.424-3.565-1.273-.848-.848-1.273-1.878-1.273-3.09 0-1.528.485-2.704 1.455-3.528.994-.848 2.11-1.273 3.347-1.273.897 0 1.697.194 2.4.582a4.44 4.44 0 0 1 1.71 1.564c.412.63.618 1.333.618 2.109h-.182c0-1.091-.279-2.097-.836-3.018-.534-.946-1.298-1.71-2.292-2.291-.994-.582-2.182-.873-3.564-.873-1.916 0-3.492.51-4.729 1.527-1.213.994-2.17 2.34-2.874 4.037-.678 1.672-1.163 3.575-1.454 5.709a52.725 52.725 0 0 0-.4 6.545h-.219Zm.218-17.309v33.236h4.656v.219H74.532v-.219h4.547V22.036h-4.547v-.218h12.076ZM118.427 55.782c-2.086 0-3.638-.424-4.656-1.273-.994-.848-1.661-1.94-2.001-3.273a17.971 17.971 0 0 1-.472-4.145V14.545c1.236 0 2.582-.218 4.037-.654 1.455-.437 2.631-.946 3.528-1.527v37.382c0 1.818.218 3.054.655 3.709.436.654 1.14.981 2.11.981 1.309 0 2.619-.642 3.928-1.927 1.309-1.285 2.34-2.824 3.092-4.618l.182.036c-.873 2.303-2.219 4.194-4.038 5.673-1.794 1.454-3.916 2.182-6.365 2.182Zm-12.44-33.746v-.218h20.66v.218h-20.66ZM140.699 9.745c-1.358 0-2.51-.472-3.456-1.418-.945-.945-1.418-2.097-1.418-3.454 0-1.358.473-2.51 1.418-3.455C138.189.473 139.341 0 140.699 0s2.51.473 3.455 1.418c.946.946 1.419 2.097 1.419 3.455 0 1.357-.473 2.509-1.419 3.454-.945.946-2.097 1.418-3.455 1.418Zm3.746 12.073v33.236h4.474v.219h-16.55v-.219h4.511V22.036h-4.511v-.218h12.076ZM165.465 21.818v33.236h4.147v.219h-16.223v-.219h4.547V22.036h-4.547v-.218h12.076Zm22.188 10.255v22.981h4.51v.219h-16.222v-.219h4.146V32.691c0-2.037-.084-3.867-.254-5.491-.17-1.624-.546-2.91-1.128-3.854-.582-.946-1.503-1.419-2.764-1.419-2.352 0-4.232.582-5.638 1.746-1.382 1.14-2.425 2.606-3.128 4.4a21.532 21.532 0 0 0-1.382 5.6c-.219 1.963-.328 3.757-.328 5.381l-.218.291c0-1.72.109-3.624.327-5.709a21.59 21.59 0 0 1 1.492-6c.776-1.915 1.976-3.478 3.601-4.69 1.624-1.237 3.843-1.855 6.656-1.855 2.813 0 4.959.473 6.438 1.418s2.498 2.255 3.056 3.927c.557 1.649.836 3.528.836 5.637ZM205.063 9.745c-1.358 0-2.51-.472-3.455-1.418-.946-.945-1.419-2.097-1.419-3.454 0-1.358.473-2.51 1.419-3.455C202.553.473 203.705 0 205.063 0s2.51.473 3.456 1.418c.945.946 1.418 2.097 1.418 3.455 0 1.357-.473 2.509-1.418 3.454-.946.946-2.098 1.418-3.456 1.418Zm3.746 12.073v33.236h4.474v.219h-16.55v-.219h4.511V22.036h-4.511v-.218h12.076ZM246.634 56c-1.261 0-2.437-.17-3.528-.51a5.181 5.181 0 0 1-2.619-1.854c-.655-.92-.982-2.218-.982-3.89V33.127c0-1.745-.146-3.503-.437-5.273-.266-1.77-.86-3.236-1.782-4.4-.921-1.187-2.352-1.781-4.292-1.781-1.285 0-2.595.157-3.928.473a15.415 15.415 0 0 0-3.711 1.381c-1.115.606-2.024 1.346-2.728 2.218-.678.873-1.018 1.88-1.018 3.019h-.145c0-1.31.448-2.352 1.345-3.128.898-.8 1.916-1.2 3.056-1.2 1.188 0 2.255.364 3.201 1.091.97.727 1.455 1.758 1.455 3.091 0 1.527-.498 2.655-1.492 3.382-.97.703-2.025 1.054-3.164 1.054-1.285 0-2.352-.363-3.201-1.09-.849-.752-1.273-1.819-1.273-3.2 0-1.212.364-2.28 1.091-3.2.727-.922 1.722-1.697 2.983-2.328 1.261-.654 2.667-1.151 4.219-1.49 1.576-.34 3.189-.51 4.838-.51 3.467 0 6.098.57 7.893 1.71 1.794 1.115 3.019 2.581 3.673 4.4.655 1.818.983 3.745.983 5.781v18.764c0 .848.181 1.588.545 2.218.364.606 1.043.91 2.037.91.8 0 1.71-.377 2.728-1.128 1.019-.776 1.843-1.843 2.473-3.2l.146.109c-.655 1.576-1.734 2.836-3.237 3.782-1.479.945-3.189 1.418-5.129 1.418Zm-17.423 0c-3.152 0-5.674-.8-7.566-2.4-1.867-1.624-2.8-3.818-2.8-6.582 0-3.248 1.37-5.745 4.11-7.49 2.74-1.746 6.693-2.619 11.858-2.619h8.075v.218h-7.384c-2.037 0-3.662.521-4.874 1.564a8.506 8.506 0 0 0-2.546 3.709c-.51 1.455-.764 2.824-.764 4.11 0 1.211.133 2.436.4 3.672.291 1.236.788 2.279 1.491 3.127.703.824 1.649 1.236 2.837 1.236 1.358 0 2.595-.424 3.71-1.272 1.14-.849 2.049-2.182 2.728-4 .679-1.843 1.019-4.219 1.019-7.128h.182c0 2.788-.364 5.225-1.092 7.31-.727 2.084-1.855 3.697-3.382 4.836-1.528 1.14-3.528 1.709-6.002 1.709Z"/></g><path stroke="#000" stroke-width="2.425" d="M151.557 4.848h42.436"/></svg>