<svg width="160" height="100" fill="none" xmlns="http://www.w3.org/2000/svg"><circle cx="125.5" cy="61.004" r="6.5" fill="#000"/><path d="M112.061 62.565a1.502 1.502 0 0 0 0-2.121l-9.546-9.546a1.5 1.5 0 0 0-2.122 2.121l8.486 8.485-8.486 8.486a1.5 1.5 0 0 0 2.122 2.12l9.546-9.545ZM14 61.505l-1.446-.398A1.5 1.5 0 0 0 14 63.004v-1.5Zm29-18.5-.096 1.496A1.5 1.5 0 0 0 44.5 43.06L43 43.004Zm84 0-1.5.017a1.5 1.5 0 0 0 1.456 1.482l.044-1.5Zm17.507 20.649a1.5 1.5 0 0 0 2.986-.299l-2.986.299ZM111 60.004H14v3h97v-3Zm-95.554 1.898c1.704-6.194 9.567-18.543 27.458-17.4l.192-2.995c-19.71-1.258-28.579 12.46-30.542 19.6l2.892.795ZM44.5 43.06c.24-6.505 2.592-16.34 8.833-24.561 6.192-8.156 16.263-14.8 32.186-14.995l-.036-3c-16.877.206-27.806 7.311-34.54 16.18-6.683 8.805-9.182 19.27-9.441 26.265l2.998.11Zm41.02-39.556c15.903-.194 25.782 6.36 31.757 14.547 6.03 8.264 8.144 18.291 8.224 24.971l3-.036c-.086-7.153-2.323-17.826-8.801-26.703C113.165 7.329 102.378.298 85.482.504l.036 3Zm41.437 41c2.537.074 6.563 1.1 10.126 3.98 3.519 2.843 6.664 7.554 7.425 15.17l2.986-.299c-.839-8.384-4.36-13.84-8.525-17.205-4.12-3.33-8.794-4.553-11.924-4.645l-.088 2.999Z" fill="url(#a)"/><defs><linearGradient id="a" x1="8.758" y1="33.026" x2="150.771" y2="31.357" gradientUnits="userSpaceOnUse"><stop stop-color="#E498FF"/><stop offset=".385" stop-color="#7C9BFF"/><stop offset=".599" stop-color="#7C9BFF"/><stop offset="1" stop-color="#00F6FF"/></linearGradient></defs></svg>