<svg width="160" height="100" fill="none" xmlns="http://www.w3.org/2000/svg"><path d="M10.5 18.648S26.085 1.778 44 2.002c17 0 32 16.646 32 16.646m7 0s8.999-15.95 30.429-16.268C139 2.002 149 18.648 149 18.648M10.5 40.337S19 59 43.5 59C66.5 59 76 40.337 76 40.337m7 0S93 59 117 59c23.5 0 32-18.663 32-18.663" stroke="url(#a)" stroke-width="3" stroke-linecap="round" stroke-linejoin="round"/><ellipse cx="7" cy="29.24" rx="6.5" ry="6.557" fill="#000"/><ellipse cx="78" cy="29.24" rx="6.5" ry="6.557" fill="#7C9BFF"/><ellipse cx="153" cy="29.24" rx="6.5" ry="6.557" fill="#000"/><defs><linearGradient id="a" x1="5" y1="30.753" x2="154" y2="28.771" gradientUnits="userSpaceOnUse"><stop stop-color="#E498FF"/><stop offset=".385" stop-color="#7C9BFF"/><stop offset=".599" stop-color="#7C9BFF"/><stop offset="1" stop-color="#00F6FF"/></linearGradient></defs></svg>